<svg xmlns="http://www.w3.org/2000/svg" version="1.0" viewBox="0 0 2048 2048"><path d="M960.3 702.1c-8.3 4.1-19.6 18.7-34.7 45l-6.7 11.6-5.2.7c-9.1 1-9.2 1-10.5-3.7-2.8-10.3-8-12.7-26.1-12-11.1.5-13 .8-16.3 2.9-4.8 3-7.1 7.5-7.4 14.3l-.2 5.4-7.3 3.9c-4 2.2-8.7 4.9-10.4 6.1-15.9 11.1-27.1 27.3-32.7 47.2l-2.3 8v190l2.8 9c8.7 27.8 27.9 47.9 54.5 56.9 13.9 4.8 13 4.7 170.2 4.4l148.5-.3 8-2.3c30-8.5 51.7-29.7 60.7-59.2l2.3-7.5.3-91.4c.2-78.2 0-92.6-1.3-100.2-5.6-32.8-30.1-59.2-63-68-6.6-1.8-12-2.3-30.8-2.8l-22.9-.6-8.1-14c-15.3-26-25.1-38.5-33.9-42.9l-5.2-2.6h-59c-58 0-59.2 0-63.3 2.1zm118.2 14c7.4 2 14.7 11.6 31.4 40.9 4.5 8 9.1 15.2 10.1 16.1 1.6 1.4 5.9 1.8 25.7 2.3 27.7.9 36.2 2.4 48.2 8.6 18.4 9.6 31.2 25.4 36.1 44.6 1.9 7.4 2 11.4 2 97.9s-.1 90.5-2 97.9c-6.3 24.7-26.5 44.2-52 50.2-7 1.6-17.7 1.7-154.5 1.6-134.2-.1-147.6-.3-154-1.8-25.6-6.2-45.1-25.5-51.5-51.1-2-7.7-2-10.5-1.8-100.4l.3-92.4 2.2-6.5c3.4-10 9.1-18.7 17.3-27 8.7-8.7 15.9-13.2 27.3-17.2 8.8-3.1 11.5-3.4 43.6-4.7 24-1 20.7.9 30.8-17.6 7.1-12.8 15.2-25.9 21.2-33.9 6.6-8.9 4.2-8.6 63.6-8.6 34.7 0 53.3.4 56 1.1z"/><path d="M1162.8 799.4c-12.9 3.5-20.8 14.1-20.8 27.5.1 10.1 5.7 18.7 15.5 23.9 6.6 3.5 16.7 3.7 23.6.6 9.8-4.5 16.1-14.1 16.1-24.3 0-8.2-2-13.6-6.9-19.1-7.2-8.1-17.8-11.4-27.5-8.6zm13.3 16.9c3.8 2.6 6.4 8.4 5.5 12.2-.4 1.4-1.9 3.9-3.4 5.6-2.3 2.5-3.8 3.3-7.8 3.6-4.6.5-5.4.2-8.7-2.7-4.4-3.8-5.5-8.2-3.3-13.3 2.9-7.1 11.3-9.7 17.7-5.4zM1013.5 815.1c-18.1 1.9-38.1 9.1-52.4 18.9-23.4 15.8-41.2 43.1-46.5 71-2 10.5-2.1 30.4-.1 40.7 8.8 46.6 43.3 81.2 89.4 89.9 6.6 1.3 12.1 1.5 23.6 1.1 19.3-.7 29.4-3 43.9-10 30.7-14.8 51.2-39.9 60.4-73.6 2.3-8.6 2.6-11.3 2.6-27.1 0-15.7-.3-18.5-2.7-27.3-3-11.1-10.3-27.3-16.7-36.8-8.8-13-26.1-27.9-41.5-35.6-17.6-8.9-40.9-13.2-60-11.2zm23.9 16.4c18.2 2.7 34.4 9.9 47.4 20.9 34.3 29 44.3 76.9 24.3 116.4-5.2 10.1-9.5 16.1-18.4 25-27.3 27.7-67.4 35.5-104 20.2-20.6-8.5-39.9-27.2-49.3-47.5-10.5-22.7-11.9-47.5-4-70.7 8.5-24.9 25-43.6 49.1-55.3 19.3-9.5 34.9-12 54.9-9z"/></svg>